<?xml version="1.0" encoding="UTF-8" standalone="no"?>
<svg
   xmlns:dc="http://purl.org/dc/elements/1.1/"
   xmlns:cc="http://creativecommons.org/ns#"
   xmlns:rdf="http://www.w3.org/1999/02/22-rdf-syntax-ns#"
   xmlns:svg="http://www.w3.org/2000/svg"
   xmlns="http://www.w3.org/2000/svg"
   xmlns:sodipodi="http://sodipodi.sourceforge.net/DTD/sodipodi-0.dtd"
   xmlns:inkscape="http://www.inkscape.org/namespaces/inkscape"
   viewBox="0 0 155 136"
   version="1.1"
   id="svg11"
   sodipodi:docname="code_style.svg"
   inkscape:version="0.92.2 5c3e80d, 2017-08-06">
  <metadata
     id="metadata17">
    <rdf:RDF>
      <cc:Work
         rdf:about="">
        <dc:format>image/svg+xml</dc:format>
        <dc:type
           rdf:resource="http://purl.org/dc/dcmitype/StillImage" />
      </cc:Work>
    </rdf:RDF>
  </metadata>
  <defs
     id="defs15" />
  <sodipodi:namedview
     pagecolor="#ffffff"
     bordercolor="#666666"
     borderopacity="1"
     objecttolerance="10"
     gridtolerance="10"
     guidetolerance="10"
     inkscape:pageopacity="0"
     inkscape:pageshadow="2"
     inkscape:window-width="1262"
     inkscape:window-height="616"
     id="namedview13"
     showgrid="false"
     inkscape:zoom="1.7352941"
     inkscape:cx="2.5847458"
     inkscape:cy="68"
     inkscape:window-x="0"
     inkscape:window-y="0"
     inkscape:window-maximized="0"
     inkscape:current-layer="svg11" />
  <title
     id="title2">20. CodeStyle
</title>
  <g
     id="_20._CodeStyle_"
     data-name="20. CodeStyle "
     transform="translate(8,-14)">
    <path
       d="M 85.52,114.72 H 53 a 13,13 0 0 1 -13,-13 V 69.24 a 13,13 0 0 1 13,-13 h 32.52 a 13,13 0 0 1 13,13 v 32.48 a 13,13 0 0 1 -13,13 z M 53,58.24 a 11,11 0 0 0 -11,11 v 32.48 a 11,11 0 0 0 11,11 h 32.52 a 11,11 0 0 0 11,-11 V 69.24 a 11,11 0 0 0 -11,-11 z"
       id="path4"
       inkscape:connector-curvature="0" />
    <path
       d="m 68.7,57.57 h -2 V 52.19 A 5.77,5.77 0 0 1 70.39,46.8 7.65,7.65 0 0 0 68.57,32 7.64,7.64 0 0 0 60.05,39.6 h -2 a 9.65,9.65 0 1 1 13,9 3.76,3.76 0 0 0 -2.4,3.52 z"
       id="path6"
       inkscape:connector-curvature="0" />
    <rect
       x="41.040001"
       y="84.480003"
       width="56.48"
       height="2"
       id="rect8" />
  </g>
</svg>
