<?xml version="1.0" encoding="UTF-8" standalone="no"?>
<svg
   xmlns:dc="http://purl.org/dc/elements/1.1/"
   xmlns:cc="http://creativecommons.org/ns#"
   xmlns:rdf="http://www.w3.org/1999/02/22-rdf-syntax-ns#"
   xmlns:svg="http://www.w3.org/2000/svg"
   xmlns="http://www.w3.org/2000/svg"
   xmlns:sodipodi="http://sodipodi.sourceforge.net/DTD/sodipodi-0.dtd"
   xmlns:inkscape="http://www.inkscape.org/namespaces/inkscape"
   viewBox="0 0 155 136"
   version="1.1"
   id="svg9"
   sodipodi:docname="classes.svg"
   inkscape:version="0.92.2 5c3e80d, 2017-08-06">
  <metadata
     id="metadata15">
    <rdf:RDF>
      <cc:Work
         rdf:about="">
        <dc:format>image/svg+xml</dc:format>
        <dc:type
           rdf:resource="http://purl.org/dc/dcmitype/StillImage" />
      </cc:Work>
    </rdf:RDF>
  </metadata>
  <defs
     id="defs13" />
  <sodipodi:namedview
     pagecolor="#ffffff"
     bordercolor="#666666"
     borderopacity="1"
     objecttolerance="10"
     gridtolerance="10"
     guidetolerance="10"
     inkscape:pageopacity="0"
     inkscape:pageshadow="2"
     inkscape:window-width="941"
     inkscape:window-height="576"
     id="namedview11"
     showgrid="false"
     inkscape:zoom="1.7352941"
     inkscape:cx="71.737288"
     inkscape:cy="68"
     inkscape:window-x="0"
     inkscape:window-y="0"
     inkscape:window-maximized="0"
     inkscape:current-layer="svg9" />
  <title
     id="title2">17. Classes</title>
  <g
     id="_17._Classes"
     data-name="17. Classes"
     transform="translate(8,-2)">
    <path
       d="M 74.73,82 H 32.05 A 10.5,10.5 0 0 1 21.57,71.51 V 51.7 A 10.49,10.49 0 0 1 32.05,41.22 H 74.73 A 10.5,10.5 0 0 1 85.22,51.7 V 71.51 A 10.51,10.51 0 0 1 74.73,82 Z M 32.05,43.22 A 8.49,8.49 0 0 0 23.57,51.7 V 71.51 A 8.49,8.49 0 0 0 32.05,80 h 42.68 a 8.5,8.5 0 0 0 8.49,-8.49 V 51.7 a 8.5,8.5 0 0 0 -8.49,-8.48 z"
       id="path4"
       inkscape:connector-curvature="0" />
    <path
       d="M 110.54,101.39 H 67.86 A 10.5,10.5 0 0 1 57.38,90.9 V 71.09 A 10.49,10.49 0 0 1 67.86,60.61 h 42.68 A 10.5,10.5 0 0 1 121,71.09 V 90.9 a 10.51,10.51 0 0 1 -10.46,10.49 z M 67.86,62.61 a 8.48,8.48 0 0 0 -8.48,8.48 V 90.9 a 8.49,8.49 0 0 0 8.48,8.49 h 42.68 A 8.5,8.5 0 0 0 119,90.9 V 71.09 a 8.49,8.49 0 0 0 -8.49,-8.48 z"
       id="path6"
       inkscape:connector-curvature="0" />
  </g>
</svg>
