<svg xmlns="http://www.w3.org/2000/svg" viewBox="0 0 155 136"><title>2. Conditions</title><g id="_2._Conditions" data-name="2. Conditions"><path d="M37.51,51.85a1,1,0,0,1-.61-.21L28,44.82A1,1,0,0,1,27.6,44a1,1,0,0,1,.39-.8l8.91-6.82A1,1,0,0,1,38.11,38l-7.87,6,7.87,6a1,1,0,0,1-.6,1.79Z"/><path d="M115.71,52a1,1,0,0,1-.79-.39,1,1,0,0,1,.18-1.4l7.87-6-7.87-6a1,1,0,0,1,1.22-1.59l8.9,6.82a1,1,0,0,1,.4.8,1,1,0,0,1-.4.79l-8.9,6.83A1.06,1.06,0,0,1,115.71,52Z"/><path d="M76.45,101.81a1,1,0,0,1-1-1V56.38A11.25,11.25,0,0,0,64.22,45.15H31.05a1,1,0,0,1,0-2H64.22A13.24,13.24,0,0,1,77.45,56.38v44.43A1,1,0,0,1,76.45,101.81Z"/><path d="M76.45,101.81h0a1,1,0,0,1-1-1l.09-44.43A13.25,13.25,0,0,1,88.77,43.15h33.17a1,1,0,0,1,0,2H88.77A11.25,11.25,0,0,0,77.54,56.38l-.09,44.44A1,1,0,0,1,76.45,101.81Z"/></g></svg>