<svg xmlns="http://www.w3.org/2000/svg" viewBox="0 0 155 136"><title>5. Vectors </title><g id="_5._Vectors" data-name="5. Vectors"><path d="M59.85,77.63a1,1,0,0,1-.61-1.8l7.31-5.6-7.31-5.6a1,1,0,1,1,1.22-1.58l8.34,6.39a1,1,0,0,1,.39.79,1,1,0,0,1-.39.8l-8.34,6.39A1,1,0,0,1,59.85,77.63Z"/><path d="M96.46,77.63a1,1,0,0,1-.61-.21L87.51,71a1,1,0,0,1-.39-.8,1,1,0,0,1,.39-.79l8.34-6.39a1,1,0,1,1,1.22,1.58l-7.31,5.6,7.31,5.6a1,1,0,0,1-.61,1.8Z"/><path d="M78.06,107.57a1,1,0,0,1-1-1V28.15a1,1,0,0,1,2,0v78.42A1,1,0,0,1,78.06,107.57Z"/><path d="M66.24,71.23H39.47a1,1,0,0,1,0-2H66.24a1,1,0,0,1,0,2Z"/><path d="M117.06,71.23H90.29a1,1,0,0,1,0-2h26.77a1,1,0,0,1,0,2Z"/></g></svg>