<?xml version="1.0" encoding="UTF-8" standalone="no"?>
<svg
   xmlns:dc="http://purl.org/dc/elements/1.1/"
   xmlns:cc="http://creativecommons.org/ns#"
   xmlns:rdf="http://www.w3.org/1999/02/22-rdf-syntax-ns#"
   xmlns:svg="http://www.w3.org/2000/svg"
   xmlns="http://www.w3.org/2000/svg"
   xmlns:sodipodi="http://sodipodi.sourceforge.net/DTD/sodipodi-0.dtd"
   xmlns:inkscape="http://www.inkscape.org/namespaces/inkscape"
   viewBox="0 0 155 136"
   version="1.1"
   id="svg11"
   sodipodi:docname="manipulation.svg"
   inkscape:version="0.92.2 5c3e80d, 2017-08-06">
  <metadata
     id="metadata17">
    <rdf:RDF>
      <cc:Work
         rdf:about="">
        <dc:format>image/svg+xml</dc:format>
        <dc:type
           rdf:resource="http://purl.org/dc/dcmitype/StillImage" />
      </cc:Work>
    </rdf:RDF>
  </metadata>
  <defs
     id="defs15" />
  <sodipodi:namedview
     pagecolor="#ffffff"
     bordercolor="#666666"
     borderopacity="1"
     objecttolerance="10"
     gridtolerance="10"
     guidetolerance="10"
     inkscape:pageopacity="0"
     inkscape:pageshadow="2"
     inkscape:window-width="1101"
     inkscape:window-height="657"
     id="namedview13"
     showgrid="false"
     inkscape:zoom="1.7352941"
     inkscape:cx="2.5847458"
     inkscape:cy="68"
     inkscape:window-x="0"
     inkscape:window-y="0"
     inkscape:window-maximized="0"
     inkscape:current-layer="svg11" />
  <title
     id="title2">30. Manipulation
</title>
  <g
     id="_30._Manipulation_"
     data-name="30. Manipulation "
     transform="translate(-6,-2)">
    <path
       d="m 71.87,120.31 h -0.24 a 9,9 0 0 1 -6.16,-2.22 c -1.72,-1.62 -2.59,-4 -2.59,-7 0.27,-10.43 0.82,-38.16 0,-41.46 -0.2,-0.8 -0.39,-1.51 -0.57,-2.14 a 8.37,8.37 0 0 0 -3.62,-4.73 c -8.45,-5.31 -17.36,-14.91 -11.8,-30.5 2.28,-6.36 4.42,-9.25 7,-9.38 3.6,-0.2 6.19,5.36 9.2,11.76 2.62,5.56 5.58,11.85 8.5,11.85 2.92,0 6,-6.38 8.67,-12 3,-6.33 5.53,-11.83 9.06,-11.62 2.52,0.12 4.66,3 6.93,9.36 5.54,15.51 -3.25,25.09 -11.6,30.39 A 8.62,8.62 0 0 0 81,67.37 c -0.2,0.66 -0.4,1.42 -0.61,2.27 -0.79,3.3 -0.25,31 0,41.44 0,3 -0.87,5.39 -2.59,7 a 8.92,8.92 0 0 1 -5.93,2.23 z M 54.05,24.89 H 54 c -0.87,0 -2.71,1.15 -5.17,8 -5.12,14.34 3.14,23.22 11,28.14 A 10.3,10.3 0 0 1 64.26,67 c 0.19,0.65 0.39,1.39 0.59,2.23 1,4.22 0.07,40.41 0,41.95 a 7.24,7.24 0 0 0 2,5.5 7,7 0 0 0 4.69,1.68 0.34,0.34 0 0 1 0.1,0 0.33,0.33 0 0 1 0.1,0 7,7 0 0 0 4.7,-1.69 7.3,7.3 0 0 0 1.95,-5.52 c 0,-1.51 -1,-37.7 0,-41.92 0.21,-0.9 0.43,-1.69 0.64,-2.38 a 10.61,10.61 0 0 1 4.52,-5.88 c 7.74,-4.91 15.89,-13.76 10.8,-28 -2.47,-6.9 -4.28,-8 -5.14,-8 -2.17,-0.12 -4.84,5.52 -7.16,10.48 -3.16,6.65 -6.16,13.05 -10.46,13.05 -4.3,0 -7.16,-6.31 -10.31,-13 -2.34,-4.98 -5,-10.61 -7.23,-10.61 z"
       id="path4"
       inkscape:connector-curvature="0" />
    <path
       d="m 110.11,120.31 h -0.26 a 8.89,8.89 0 0 1 -6.14,-2.21 c -1.72,-1.62 -2.59,-4 -2.59,-7 0,-0.19 0.45,-17.28 0.44,-29.52 0,-3.11 0.87,-5.52 2.6,-7.16 a 8.14,8.14 0 0 1 4.63,-2.1 l 0.08,-35.43 a 1,1 0 0 1 1,-1 v 0 a 1,1 0 0 1 1,1 l -0.08,35.42 a 8.31,8.31 0 0 1 4.79,2.14 c 1.72,1.63 2.6,4 2.6,7.13 0,12.24 0.43,29.33 0.44,29.5 0,3 -0.87,5.39 -2.59,7 a 8.92,8.92 0 0 1 -5.92,2.23 z m -0.43,-46 a 6.34,6.34 0 0 0 -4.16,1.61 c -1.3,1.25 -2,3.17 -2,5.7 0,12.27 -0.44,29.38 -0.44,29.55 a 7.24,7.24 0 0 0 2,5.5 7,7 0 0 0 4.69,1.68 h 0.14 a 7.18,7.18 0 0 0 4.76,-1.69 7.3,7.3 0 0 0 2,-5.52 c 0,-0.14 -0.46,-17.25 -0.44,-29.52 0,-2.53 -0.67,-4.44 -2,-5.69 a 6.4,6.4 0 0 0 -4.28,-1.62 h -0.24 z"
       id="path6"
       inkscape:connector-curvature="0" />
    <path
       d="m 113.3,36.71 h -6.63 a 1,1 0 0 1 -0.77,-0.37 1,1 0 0 1 -0.21,-0.82 l 2.11,-11.08 c 0.31,-1.6 1.34,-2.17 2.13,-2.17 v 0 c 0.79,0 1.82,0.56 2.13,2.14 l 2.21,11.1 a 1,1 0 0 1 -0.2,0.83 1,1 0 0 1 -0.77,0.37 z m -5.42,-2 h 4.2 l -2,-9.91 a 1.16,1.16 0 0 0 -0.17,-0.47 1.22,1.22 0 0 0 -0.17,0.48 z"
       id="path8"
       inkscape:connector-curvature="0" />
  </g>
</svg>
